<?xml version="1.0" encoding="UTF-8" standalone="no"?>
<!-- Created with Inkscape (http://www.inkscape.org/) -->

<svg
   xmlns:dc="http://purl.org/dc/elements/1.1/"
   xmlns:cc="http://creativecommons.org/ns#"
   xmlns:rdf="http://www.w3.org/1999/02/22-rdf-syntax-ns#"
   xmlns:svg="http://www.w3.org/2000/svg"
   xmlns="http://www.w3.org/2000/svg"
   xmlns:sodipodi="http://sodipodi.sourceforge.net/DTD/sodipodi-0.dtd"
   xmlns:inkscape="http://www.inkscape.org/namespaces/inkscape"
   width="129.57692"
   height="209.82599"
   id="svg2"
   version="1.1"
   inkscape:version="0.48.4 r9939"
   sodipodi:docname="controller-conn.svg">
  <defs
     id="defs4" />
  <sodipodi:namedview
     id="base"
     pagecolor="#ffffff"
     bordercolor="#666666"
     borderopacity="1.0"
     inkscape:pageopacity="0.0"
     inkscape:pageshadow="2"
     inkscape:zoom="0.83718329"
     inkscape:cx="49.790255"
     inkscape:cy="119.40543"
     inkscape:document-units="px"
     inkscape:current-layer="layer1"
     showgrid="false"
     inkscape:window-width="1259"
     inkscape:window-height="839"
     inkscape:window-x="0"
     inkscape:window-y="0"
     inkscape:window-maximized="0"
     fit-margin-top="0"
     fit-margin-left="0"
     fit-margin-right="0"
     fit-margin-bottom="0" />
  <metadata
     id="metadata7">
    <rdf:RDF>
      <cc:Work
         rdf:about="">
        <dc:format>image/svg+xml</dc:format>
        <dc:type
           rdf:resource="http://purl.org/dc/dcmitype/StillImage" />
        <dc:title></dc:title>
      </cc:Work>
    </rdf:RDF>
  </metadata>
  <g
     inkscape:label="Layer 1"
     inkscape:groupmode="layer"
     id="layer1"
     transform="translate(-298.3437,-356.56045)">
    <path
       style="fill:none;stroke:#000000;stroke-width:20;stroke-linecap:butt;stroke-linejoin:round;stroke-miterlimit:4;stroke-opacity:1;stroke-dasharray:none"
       d="m 308.43035,525.01817 c 0.0224,12.61936 10.90299,30.79285 29.01664,31.18674 18.11366,0.3939 46.59996,0.14703 57.65053,-1.01178 12.80286,-1.34256 22.45738,-21.53441 22.52553,-31.36944 0,0 0.64469,-87.18796 0,-91.56654 -0.64469,-4.37857 -13.29505,-15.39673 -28.53212,-31.75759 -15.23706,-16.36086 -25.30565,-33.68303 -48.51772,-33.94468 -17.74986,-0.20008 -31.03771,23.34467 -31.76769,28.18425 -0.72997,4.83959 -0.37517,130.27904 -0.37517,130.27904 z"
       id="path3050"
       inkscape:connector-curvature="0"
       sodipodi:nodetypes="szsszsszs" />
    <path
       sodipodi:type="arc"
       style="fill:none;stroke:#000000;stroke-width:10;stroke-linejoin:round;stroke-miterlimit:4;stroke-opacity:1;stroke-dasharray:none"
       id="path3820"
       sodipodi:cx="342.81619"
       sodipodi:cy="402.56421"
       sodipodi:rx="8.361371"
       sodipodi:ry="8.6599913"
       d="m 351.17756,402.56421 c 0,4.78278 -3.74351,8.65999 -8.36137,8.65999 -4.61786,0 -8.36137,-3.87721 -8.36137,-8.65999 0,-4.78278 3.74351,-8.65999 8.36137,-8.65999 4.61786,0 8.36137,3.87721 8.36137,8.65999 z"
       transform="matrix(1.335243,0,0,1.335243,-114.92672,-134.95682)" />
    <path
       transform="matrix(1.335243,0,0,1.335243,-114.6281,-95.538929)"
       d="m 351.17756,402.56421 c 0,4.78278 -3.74351,8.65999 -8.36137,8.65999 -4.61786,0 -8.36137,-3.87721 -8.36137,-8.65999 0,-4.78278 3.74351,-8.65999 8.36137,-8.65999 4.61786,0 8.36137,3.87721 8.36137,8.65999 z"
       sodipodi:ry="8.6599913"
       sodipodi:rx="8.361371"
       sodipodi:cy="402.56421"
       sodipodi:cx="342.81619"
       id="path3822"
       style="fill:none;stroke:#000000;stroke-width:10;stroke-linejoin:round;stroke-miterlimit:4;stroke-opacity:1;stroke-dasharray:none"
       sodipodi:type="arc" />
    <path
       sodipodi:type="arc"
       style="fill:none;stroke:#000000;stroke-width:10;stroke-linejoin:round;stroke-miterlimit:4;stroke-opacity:1;stroke-dasharray:none"
       id="path3824"
       sodipodi:cx="342.81619"
       sodipodi:cy="402.56421"
       sodipodi:rx="8.361371"
       sodipodi:ry="8.6599913"
       d="m 351.17756,402.56421 c 0,4.78278 -3.74351,8.65999 -8.36137,8.65999 -4.61786,0 -8.36137,-3.87721 -8.36137,-8.65999 0,-4.78278 3.74351,-8.65999 8.36137,-8.65999 4.61786,0 8.36137,3.87721 8.36137,8.65999 z"
       transform="matrix(1.335243,0,0,1.335243,-114.92672,-55.523797)" />
    <path
       transform="matrix(1.335243,0,0,1.335243,-114.6281,-15.508665)"
       d="m 351.17756,402.56421 c 0,4.78278 -3.74351,8.65999 -8.36137,8.65999 -4.61786,0 -8.36137,-3.87721 -8.36137,-8.65999 0,-4.78278 3.74351,-8.65999 8.36137,-8.65999 4.61786,0 8.36137,3.87721 8.36137,8.65999 z"
       sodipodi:ry="8.6599913"
       sodipodi:rx="8.361371"
       sodipodi:cy="402.56421"
       sodipodi:cx="342.81619"
       id="path3826"
       style="fill:none;stroke:#000000;stroke-width:10;stroke-linejoin:round;stroke-miterlimit:4;stroke-opacity:1;stroke-dasharray:none"
       sodipodi:type="arc" />
    <path
       sodipodi:type="arc"
       style="fill:none;stroke:#000000;stroke-width:10;stroke-linejoin:round;stroke-miterlimit:4;stroke-opacity:1;stroke-dasharray:none"
       id="path3828"
       sodipodi:cx="342.81619"
       sodipodi:cy="402.56421"
       sodipodi:rx="8.361371"
       sodipodi:ry="8.6599913"
       d="m 351.17756,402.56421 c 0,4.78278 -3.74351,8.65999 -8.36137,8.65999 -4.61786,0 -8.36137,-3.87721 -8.36137,-8.65999 0,-4.78278 3.74351,-8.65999 8.36137,-8.65999 4.61786,0 8.36137,3.87721 8.36137,8.65999 z"
       transform="matrix(1.335243,0,0,1.335243,-74.314347,-94.344447)" />
    <path
       transform="matrix(1.335243,0,0,1.335243,-74.612967,-54.329315)"
       d="m 351.17756,402.56421 c 0,4.78278 -3.74351,8.65999 -8.36137,8.65999 -4.61786,0 -8.36137,-3.87721 -8.36137,-8.65999 0,-4.78278 3.74351,-8.65999 8.36137,-8.65999 4.61786,0 8.36137,3.87721 8.36137,8.65999 z"
       sodipodi:ry="8.6599913"
       sodipodi:rx="8.361371"
       sodipodi:cy="402.56421"
       sodipodi:cx="342.81619"
       id="path3830"
       style="fill:none;stroke:#000000;stroke-width:10;stroke-linejoin:round;stroke-miterlimit:4;stroke-opacity:1;stroke-dasharray:none"
       sodipodi:type="arc" />
    <path
       sodipodi:type="arc"
       style="fill:none;stroke:#000000;stroke-width:10;stroke-linejoin:round;stroke-miterlimit:4;stroke-opacity:1;stroke-dasharray:none"
       id="path3832"
       sodipodi:cx="342.81619"
       sodipodi:cy="402.56421"
       sodipodi:rx="8.361371"
       sodipodi:ry="8.6599913"
       d="m 351.17756,402.56421 c 0,4.78278 -3.74351,8.65999 -8.36137,8.65999 -4.61786,0 -8.36137,-3.87721 -8.36137,-8.65999 0,-4.78278 3.74351,-8.65999 8.36137,-8.65999 4.61786,0 8.36137,3.87721 8.36137,8.65999 z"
       transform="matrix(1.335243,0,0,1.335243,-74.314347,-14.314183)" />
  </g>
</svg>
